<?xml version="1.0" encoding="utf-8"?>
<!-- Generator: Adobe Illustrator 16.0.0, SVG Export Plug-In . SVG Version: 6.00 Build 0)  -->
<!DOCTYPE svg PUBLIC "-//W3C//DTD SVG 1.1//EN" "http://www.w3.org/Graphics/SVG/1.1/DTD/svg11.dtd">
<svg version="1.1" id="Vrstva_1" xmlns="http://www.w3.org/2000/svg" xmlns:xlink="http://www.w3.org/1999/xlink" x="0px" y="0px"
	 width="564px" height="300px" viewBox="0 0 564 300" enable-background="new 0 0 564 300" xml:space="preserve">
<g>
	<polygon fill="#DADADA" points="346.604,226.286 346.604,300 418.402,250.843 418.402,177.119 	"/>
	<polygon fill="#B2B2B2" points="0,72.306 0,146.025 346.604,300 346.604,226.286 	"/>
	<polygon fill="#B2B2B2" points="418.402,177.119 418.402,250.843 486.203,280.961 486.203,207.242 	"/>
	<polygon fill="#DADADA" points="486.203,207.242 486.203,280.961 564,227.693 564,153.975 	"/>
	<path fill="#DADADA" d="M194.469,53.992l35.9-24.582l7.522,3.342l-35.898,24.581L194.469,53.992z M298.168,59.528l-8.969,6.139
		l7.547,3.346l8.966-6.135L298.168,59.528z M365.986,89.655l-35.902,24.586l7.527,3.34L373.514,93L365.986,89.655z M145.592,49.162
		l-67.8-30.122L0,72.306l346.604,153.98l71.799-49.167l67.801,30.123L564,153.975L217.394,0L145.592,49.162z M317.131,84.835
		l-7.541-3.351l-5.977,4.09l7.545,3.354l-29.927,20.487l-26.376-11.714l23.938-16.392l-7.547-3.35l-23.935,16.388l-26.376-11.714
		l65.828-45.072l60.296,26.781L317.131,84.835 M532.002,167.384l-30.131-13.391l-5.984,4.096l30.145,13.39l-16.895,11.562
		l-30.135-13.385l-5.998,4.104l30.143,13.391l-18.479,12.641l-60.293-26.78l65.828-45.072l60.297,26.785L532.002,167.384
		 M218.966,7.444l60.273,26.777l-65.827,45.068l-60.278-26.777L218.966,7.444 M416.85,169.675l-36.738-16.332l23.941-16.387
		l-7.547-3.346l-23.932,16.389l-15.998-7.111l65.826-45.072L458.822,114l-23.934,16.387l7.545,3.352l23.93-16.39l16.311,7.243
		L416.85,169.675 M349.029,139.539l-60.274-26.778l65.829-45.072l60.271,26.776L349.029,139.539 M345.043,218.832l-36.732-16.317
		l23.936-16.393l-7.541-3.351l-23.936,16.39l-15.995-7.111l65.807-45.058l36.428,16.18l-23.936,16.387l7.545,3.352l23.934-16.388
		l16.309,7.246L345.043,218.832 M73.792,98.325L13.517,71.547l65.808-45.059l26.374,11.713L54.845,73.023l7.546,3.354l50.853-34.82
		L139.6,53.265L73.792,98.325 M277.226,188.704l-60.27-26.775l65.811-45.063l60.276,26.776L277.226,188.704 M222.848,111.103
		l-30.14-13.386l-5.974,4.085l30.137,13.391l-41.361,28.323l-60.276-26.782l18.468-12.646l30.144,13.386l5.989-4.099l-30.137-13.391
		l41.346-28.309l60.27,26.776L222.848,111.103 M107.707,113.393l-26.375-11.718l65.811-45.058l26.38,11.718L107.707,113.393
		 M209.431,158.582l-26.375-11.717l65.808-45.063l26.375,11.718L209.431,158.582 M294.182,138.822l-35.899,24.582l7.525,3.339
		l35.901-24.581L294.182,138.822z"/>
	<path fill="#D40074" d="M303.613,94.098l-6.867,4.697V69.013l8.966-6.135v21.265l-2.1,1.432V94.098L303.613,94.098z
		 M278.793,108.336l2.438,1.08l5.533-3.788V37.562l-65.828,45.072l26.376,11.714l23.935-16.388l7.547,3.35l-23.938,16.392
		L278.793,108.336L278.793,108.336z M424.375,173.01l48.629,21.604v-20.855l5.998-4.104l11.201,4.975v-46.692L424.375,173.01
		L424.375,173.01z M201.993,74.214l11.419,5.075l24.479-16.764V32.752l-35.898,24.581V74.214L201.993,74.214z M194.469,53.992
		l24.497-16.774V7.444l-65.832,45.068l41.335,18.362V53.992L194.469,53.992z M372.574,149.999l23.932-16.389l7.547,3.346
		l-23.941,16.387l36.738,16.332l5.553-3.81v-68.05l-65.826,45.072L372.574,149.999L372.574,149.999z M337.611,134.464l11.418,5.075
		l24.484-16.766V93l-35.902,24.581V134.464L337.611,134.464z M330.084,114.241l24.5-16.774V67.689l-65.829,45.072l41.329,18.362
		V114.241L330.084,114.241z M300.77,199.161l23.936-16.39l7.541,3.351l-23.936,16.393l36.732,16.317l5.539-3.799v-68.041
		l-65.807,45.058L300.77,199.161L300.77,199.161z M370.619,201.322l23.934-16.387v-18.413l-23.934,16.388V201.322L370.619,201.322z
		 M79.325,26.489L13.517,71.547l41.329,18.357V73.023l24.479-16.761V26.489L79.325,26.489z M113.244,41.557l-50.853,34.82v16.877
		l11.401,5.07l39.452-27.018V41.557L113.244,41.557z M301.709,142.162l-35.901,24.581v16.882l11.418,5.079l24.483-16.764V142.162
		L301.709,142.162z M282.767,116.865l-65.811,45.063l41.326,18.361v-16.886l24.484-16.764V116.865L282.767,116.865z
		 M169.836,113.374l-5.989,4.099v20.858l11.664,5.185l5.535-3.789V71.674l-41.346,28.309L169.836,113.374L169.836,113.374z
		 M147.142,56.616l-65.811,45.058l26.375,11.718l39.435-26.998V56.616L147.142,56.616z M248.864,101.802l-65.808,45.063
		l26.375,11.717l39.433-27.002V101.802L248.864,101.802z M466.363,117.35l-23.93,16.39v18.412l23.93-16.388V117.35L466.363,117.35z"
		/>
	<path fill="#9F0057" d="M286.764,37.562l60.296,26.781l-29.93,20.492l-7.541-3.351l-3.877,2.658V62.877l-7.544-3.35l-8.969,6.139
		l7.547,3.346v29.782l-9.982,6.833V37.562L286.764,37.562z M303.613,94.098l7.545-5.168l-7.545-3.354V94.098L303.613,94.098z
		 M473.004,194.614l11.664,5.176l18.479-12.641l-30.143-13.391V194.614L473.004,194.614z M532.002,167.384l18.498-12.661
		l-60.297-26.785v46.692l18.934,8.41l16.895-11.562l-30.145-13.39l5.984-4.096L532.002,167.384L532.002,167.384z M201.993,57.333
		l-7.524-3.341v16.882l7.524,3.34V57.333L201.993,57.333z M218.966,37.218l11.404-7.808l7.522,3.342v29.773l41.347-28.304
		L218.966,7.444V37.218L218.966,37.218z M422.402,97.815v68.05l20.031-13.714v-18.412l-7.545-3.352L458.822,114L422.402,97.815
		L422.402,97.815z M330.084,114.241v16.882l7.527,3.341v-16.883L330.084,114.241L330.084,114.241z M354.584,97.467l11.402-7.812
		L373.514,93v29.773l41.342-28.309l-60.271-26.776V97.467L354.584,97.467z M394.553,184.936l16.309-11.167l-16.309-7.246V184.936
		L394.553,184.936z M350.582,146.992v68.041l20.037-13.711V182.91l-7.545-3.352l23.936-16.387L350.582,146.992L350.582,146.992z
		 M79.325,56.262l26.374-18.06L79.325,26.489V56.262L79.325,56.262z M113.244,41.557v29.75L139.6,53.265L113.244,41.557
		L113.244,41.557z M54.845,89.904l7.546,3.351V76.377l-7.546-3.354V89.904L54.845,89.904z M282.767,146.641l11.415-7.818l7.527,3.34
		v29.778l41.334-28.299l-60.276-26.776V146.641L282.767,146.641z M258.283,180.29l7.525,3.335v-16.882l-7.525-3.339V180.29
		L258.283,180.29z M181.045,139.727l35.827-24.534l-30.137-13.391l5.974-4.085l30.14,13.386l18.467-12.652l-60.27-26.776V139.727
		L181.045,139.727z M115.234,116.733l48.612,21.598v-20.858l-30.144-13.386L115.234,116.733L115.234,116.733z M147.142,86.395
		l26.38-18.06l-26.38-11.718V86.395L147.142,86.395z M248.864,131.58l26.375-18.061l-26.375-11.718V131.58L248.864,131.58z
		 M466.363,117.35v18.414l16.311-11.171L466.363,117.35L466.363,117.35z"/>
</g>
<g>
	<polygon fill="#DADADA" points="1091.075,363.683 1091.075,427.508 1153.102,384.944 1153.102,321.119 	"/>
	<polygon fill="#B2B2B2" points="791.656,230.374 791.656,294.199 1091.075,427.508 1091.075,363.683 	"/>
	<polygon fill="#B2B2B2" points="1153.102,321.119 1153.102,384.944 1211.669,411.023 1211.669,347.198 	"/>
	<polygon fill="#DADADA" points="1211.669,347.198 1211.669,411.023 1278.88,364.906 1278.88,301.081 	"/>
	<path fill="#DADADA" d="M959.653,214.518l31.011-21.282l6.498,2.896l-31.008,21.278L959.653,214.518z M1049.233,219.311
		l-7.747,5.312l6.52,2.9l7.746-5.312L1049.233,219.311z M1107.816,245.394l-31.011,21.286l6.503,2.893l31.011-21.286
		L1107.816,245.394z M917.428,210.336l-58.568-26.075l-67.203,46.113l299.419,133.309l62.026-42.563l58.567,26.079l67.211-46.117
		L979.457,167.772L917.428,210.336z M1065.616,241.221l-6.515-2.9l-5.164,3.541l6.519,2.9l-25.854,17.741l-22.783-10.142
		l20.678-14.192l-6.52-2.9l-20.676,14.188l-22.785-10.142l56.866-39.022l52.085,23.187L1065.616,241.221 M1251.238,312.69
		l-26.034-11.593l-5.165,3.545l26.035,11.593l-14.592,10.007l-26.035-11.585l-5.176,3.553l26.034,11.59l-15.959,10.948
		l-52.085-23.187l56.866-39.027l52.085,23.195L1251.238,312.69 M980.814,174.218l52.066,23.183l-56.863,39.019l-52.074-23.183
		L980.814,174.218 M1151.76,314.669l-31.737-14.135l20.682-14.188l-6.519-2.896l-20.678,14.184l-13.817-6.151l56.866-39.023
		l31.46,14.012l-20.674,14.188l6.519,2.9l20.674-14.188l14.09,6.266L1151.76,314.669 M1093.172,288.582l-52.068-23.183
		l56.866-39.023l52.068,23.183L1093.172,288.582 M1089.729,357.229l-31.733-14.126l20.678-14.192l-6.515-2.896l-20.678,14.184
		l-13.817-6.155l56.846-39.007l31.473,14.009l-20.683,14.188l6.519,2.9l20.679-14.188l14.09,6.274L1089.729,357.229
		 M855.404,252.896l-52.071-23.183l56.85-39.007l22.781,10.146l-43.929,30.143l6.52,2.904l43.928-30.146l22.77,10.137
		L855.404,252.896 M1031.144,331.146l-52.064-23.179l56.85-39.015L1088,292.135L1031.144,331.146 M984.168,263.963l-26.036-11.593
		l-5.161,3.541l26.035,11.593l-35.731,24.517l-52.072-23.183l15.954-10.949l26.041,11.59l5.174-3.553l-26.034-11.589l35.719-24.509
		l52.064,23.179L984.168,263.963 M884.701,265.941l-22.785-10.145l56.85-39.007l22.791,10.146L884.701,265.941 M972.578,305.07
		l-22.785-10.149l56.848-39.01l22.785,10.145L972.578,305.07 M1045.791,287.962l-31.012,21.282l6.498,2.892l31.016-21.282
		L1045.791,287.962z"/>
	<path fill="#6F6F6F" d="M1053.938,249.241l-5.932,4.067v-25.785l7.746-5.312v18.406l-1.814,1.244V249.241L1053.938,249.241z
		 M1032.496,261.568l2.105,0.935l4.78-3.28v-58.93l-56.866,39.022l22.785,10.142l20.676-14.188l6.52,2.9l-20.678,14.192
		L1032.496,261.568L1032.496,261.568z M1158.262,317.562l42.01,18.7V318.21l5.176-3.553l9.681,4.308v-40.43L1158.262,317.562
		L1158.262,317.562z M966.154,232.026l9.863,4.394l21.145-14.514v-25.773l-31.008,21.278V232.026L966.154,232.026z M959.653,214.518
		l21.161-14.522v-25.777l-56.871,39.019l35.71,15.894V214.518L959.653,214.518z M1113.508,297.634l20.678-14.184l6.519,2.896
		l-20.682,14.188l31.737,14.135l4.797-3.292v-58.917l-56.866,39.023L1113.508,297.634L1113.508,297.634z M1083.309,284.188
		l9.863,4.394l21.147-14.515v-25.781l-31.011,21.286V284.188L1083.309,284.188z M1076.806,266.68l21.164-14.522v-25.781
		l-56.866,39.023l35.702,15.897V266.68L1076.806,266.68z M1051.481,340.197l20.678-14.184l6.515,2.896l-20.678,14.192l31.733,14.126
		l4.78-3.283v-58.91l-56.846,39.007L1051.481,340.197L1051.481,340.197z M1111.818,342.07l20.679-14.188v-15.938l-20.679,14.188
		V342.07L1111.818,342.07z M860.183,190.706l-56.85,39.007l35.702,15.897v-14.616l21.147-14.511V190.706L860.183,190.706z
		 M889.482,203.752l-43.928,30.146v14.612l9.85,4.385l34.078-23.387V203.752L889.482,203.752z M1052.293,290.854l-31.016,21.282
		v14.616l9.866,4.394l21.149-14.51V290.854L1052.293,290.854z M1035.929,268.952l-56.85,39.015l35.7,15.894v-14.616l21.149-14.515
		V268.952L1035.929,268.952z M938.371,265.925l-5.174,3.553v18.059l10.077,4.483l4.781-3.279v-58.914l-35.719,24.509
		L938.371,265.925L938.371,265.925z M918.766,216.79l-56.85,39.007l22.785,10.145l34.064-23.375V216.79L918.766,216.79z
		 M1006.641,255.911l-56.848,39.01l22.785,10.149l34.063-23.382V255.911L1006.641,255.911z M1194.535,269.372l-20.674,14.188v15.942
		l20.674-14.191V269.372L1194.535,269.372z"/>
	<path fill="#565656" d="M1039.382,200.293l52.085,23.187l-25.851,17.741l-6.515-2.9l-3.35,2.297v-18.406l-6.519-2.9l-7.747,5.312
		l6.52,2.9v25.785l-8.624,5.915V200.293L1039.382,200.293z M1053.938,249.241l6.519-4.479l-6.519-2.9V249.241L1053.938,249.241z
		 M1200.271,336.262l10.075,4.486l15.959-10.948l-26.034-11.59V336.262L1200.271,336.262z M1251.238,312.69l15.975-10.961
		l-52.085-23.195v40.43l16.354,7.277l14.592-10.007l-26.035-11.593l5.165-3.545L1251.238,312.69L1251.238,312.69z M966.154,217.41
		l-6.501-2.892v14.612l6.501,2.896V217.41L966.154,217.41z M980.814,199.995l9.85-6.76l6.498,2.896v25.773l35.719-24.505
		l-52.066-23.183V199.995L980.814,199.995z M1156.557,252.459v58.917l17.305-11.875V283.56l-6.519-2.9l20.674-14.188
		L1156.557,252.459L1156.557,252.459z M1076.806,266.68v14.617l6.503,2.892v-14.616L1076.806,266.68L1076.806,266.68z
		 M1097.97,252.157l9.847-6.763l6.503,2.892v25.781l35.719-24.508l-52.068-23.183V252.157L1097.97,252.157z M1132.497,327.882
		l14.09-9.663l-14.09-6.274V327.882L1132.497,327.882z M1094.51,295.035v58.91l17.309-11.875v-15.938l-6.519-2.9l20.683-14.188
		L1094.51,295.035L1094.51,295.035z M860.183,216.483l22.781-15.632l-22.781-10.146V216.483L860.183,216.483z M889.482,203.752
		v25.757l22.77-15.62L889.482,203.752L889.482,203.752z M839.035,245.61l6.52,2.9v-14.612l-6.52-2.904V245.61L839.035,245.61z
		 M1035.929,294.729l9.862-6.768l6.502,2.892v25.782L1088,292.135l-52.071-23.183V294.729L1035.929,294.729z M1014.779,323.86
		l6.498,2.892v-14.616l-6.498-2.892V323.86L1014.779,323.86z M948.056,288.741l30.95-21.237l-26.035-11.593l5.161-3.541
		l26.036,11.593l15.952-10.957l-52.064-23.179V288.741L948.056,288.741z M891.202,268.838l41.995,18.7v-18.059l-26.041-11.59
		L891.202,268.838L891.202,268.838z M918.766,242.567l22.791-15.632l-22.791-10.146V242.567L918.766,242.567z M1006.641,281.688
		l22.785-15.632l-22.785-10.145V281.688L1006.641,281.688z M1194.535,269.372v15.938l14.09-9.672L1194.535,269.372L1194.535,269.372
		z"/>
</g>
<g>
</g>
<g>
</g>
<g>
</g>
<g>
</g>
<g>
</g>
</svg>
